<?xml version="1.0" encoding="UTF-8"?>
<svg version="1.1" xmlns="http://www.w3.org/2000/svg" width="360" height="360">
<path d="M0 0 C1.14462708 -0.00503792 1.14462708 -0.00503792 2.31237793 -0.01017761 C4.83139683 -0.01966574 7.35034912 -0.02162956 9.86938477 -0.02270508 C11.62288948 -0.02591884 13.37639392 -0.02928301 15.12989807 -0.03279114 C18.80421572 -0.03877684 22.47850986 -0.04063158 26.15283203 -0.04003906 C30.85825684 -0.0399374 35.56353088 -0.05359606 40.26891994 -0.07081127 C43.89004711 -0.08193512 47.51113785 -0.08395816 51.13228035 -0.08342934 C52.86700015 -0.08460862 54.60172091 -0.08902752 56.33642387 -0.0967617 C58.76345231 -0.10657055 61.19015368 -0.10368021 63.6171875 -0.09765625 C64.33163528 -0.10327576 65.04608307 -0.10889526 65.78218079 -0.11468506 C71.35726368 -0.07956304 74.6813052 0.43991757 78.65740967 4.44741821 C81.67209451 9.49455034 80.8926409 15.63884803 80.82739258 21.31079102 C80.82626328 22.65156012 80.82689957 23.9923317 80.8291626 25.33309937 C80.83030749 28.96094596 80.80683544 32.5882606 80.77886677 36.21598387 C80.75381512 40.01160687 80.75150816 43.80724287 80.74676514 47.60293579 C80.73434636 54.78521141 80.7015398 61.96724269 80.66136718 69.14941084 C80.61661513 77.3283199 80.59465383 85.5072408 80.57458544 93.68624187 C80.53280604 110.5060587 80.46247558 127.32562997 80.37329102 144.14526367 C81.5029554 144.13527092 81.5029554 144.13527092 82.65544128 144.12507629 C89.7617517 144.06490072 96.86797348 144.01925661 103.97446728 143.98982716 C107.627783 143.97418835 111.28088773 143.95298319 114.93408203 143.91894531 C118.46134317 143.88628743 121.98840169 143.86839723 125.51580238 143.86063194 C127.5127341 143.85241234 129.5095846 143.82900306 131.50639343 143.80537415 C132.72728165 143.80514755 133.94816986 143.80492096 135.20605469 143.8046875 C136.27861008 143.79802567 137.35116547 143.79136383 138.45622253 143.78450012 C141.82727287 144.20140912 143.66130945 145.12756092 146.37329102 147.14526367 C148.93534944 150.98835131 149.04695866 152.57929407 148.37329102 157.14526367 C147.0859375 158.96875 147.0859375 158.96875 145.36938477 160.85229492 C144.73379639 161.55008057 144.09820801 162.24786621 143.44335938 162.96679688 C139.28831667 167.33941701 134.99274103 171.56372869 130.68969727 175.78979492 C127.2526907 179.18951027 123.91771961 182.60896498 120.76782227 186.27807617 C117.58734193 189.97101242 114.16691888 193.24897334 110.56079102 196.52026367 C102.7321474 203.73502788 95.19965961 211.23119959 87.68579102 218.77026367 C86.82659561 219.63225372 86.82659561 219.63225372 85.95004272 220.51165771 C83.32263933 223.14880741 80.69706915 225.78776213 78.07373047 228.42895508 C74.20108476 232.3243584 70.31570569 236.20642231 66.41235352 240.07104492 C64.94094218 241.53322698 63.46958941 242.99546797 61.99829102 244.45776367 C61.26868164 245.17899414 60.53907227 245.90022461 59.78735352 246.64331055 C55.66366457 250.74859016 51.74076299 254.95138599 47.94116211 259.35742188 C38.39957547 270.23768331 38.39957547 270.23768331 32.56079102 271.39526367 C26.91417387 270.95239174 23.56860885 267.59083861 19.68537903 263.71131897 C18.77266739 262.80424698 17.85995575 261.89717499 16.91958618 260.96261597 C15.92073657 259.95987826 14.92199126 258.95703665 13.92333984 257.95410156 C12.86223507 256.89570845 11.80070564 255.83774094 10.73878479 254.78016663 C7.86244708 251.91293315 4.99245554 249.03942549 2.12384248 246.16446614 C-0.88045137 243.15510349 -3.88962787 240.15062958 -6.89802551 237.14537048 C-11.94782811 232.0992044 -16.99340366 227.04884055 -22.03662109 221.99609375 C-27.8672264 216.15459863 -33.70500967 210.32035132 -39.54656237 204.48980528 C-44.56350309 199.48193938 -49.57653717 194.47018786 -54.58632451 189.4551658 C-57.57778958 186.46058288 -60.57058912 183.46736727 -63.56691551 180.47764778 C-66.3826812 177.66765793 -69.19351206 174.85282338 -72.00060463 172.03417015 C-73.03167385 171.00045589 -74.06444983 169.96844081 -75.0990448 168.93825531 C-76.51056911 167.53219357 -77.91533857 166.1193604 -79.31974792 164.70619202 C-80.10783938 163.91734651 -80.89593084 163.128501 -81.70790386 162.31575108 C-84.68328482 158.95010085 -85.66365883 157.17985928 -85.50170898 152.64526367 C-84.55236671 148.84789456 -83.65418607 147.53054865 -80.62670898 145.14526367 C-77.90192746 143.78287291 -75.75830043 144.02556409 -72.70825195 144.03173828 C-70.84654861 144.03185158 -70.84654861 144.03185158 -68.94723511 144.03196716 C-67.5877885 144.03707417 -66.22834229 144.04229017 -64.86889648 144.04760742 C-63.48170014 144.04947225 -62.09450314 144.05089585 -60.70730591 144.05189514 C-57.05436386 144.0557152 -53.40146151 144.06554112 -49.74853516 144.07659912 C-46.02173398 144.08682424 -42.29492639 144.09139512 -38.56811523 144.09643555 C-31.25429505 144.10716384 -23.94050757 144.12423413 -16.62670898 144.14526367 C-16.63131795 143.43865758 -16.63592691 142.73205149 -16.64067554 142.00403309 C-16.75109436 124.81122662 -16.83383603 107.6185102 -16.88576984 90.42542744 C-16.91155221 82.11096272 -16.94670309 73.79673468 -17.00390625 65.48242188 C-17.05374055 58.23569763 -17.08599977 50.98914479 -17.09715146 43.74225396 C-17.10367029 39.90493724 -17.11899118 36.06811087 -17.15535927 32.23095131 C-17.18931975 28.61851883 -17.19976223 25.00677823 -17.19224739 21.39420128 C-17.19427695 19.43771919 -17.22117207 17.48131233 -17.24880981 15.52502441 C-17.1984198 6.96193288 -17.1984198 6.96193288 -14.3412323 2.88053894 C-9.59455479 -0.15380305 -5.53377781 -0.00350025 0 0 Z " fill="#010101" transform="translate(148.626708984375,44.854736328125)"/>
<path d="M0 0 C1.86147675 0.00022659 1.86147675 0.00022659 3.76055908 0.00045776 C5.10958009 0.01067017 6.45859945 0.02110215 7.80761719 0.03173828 C9.19195349 0.03547029 10.57629244 0.03831637 11.96063232 0.04031372 C15.59716129 0.04793544 19.23352949 0.06757123 22.86999512 0.08972168 C26.58355535 0.11021169 30.29714167 0.11932217 34.01074219 0.12939453 C41.29206533 0.15081863 48.5732562 0.18493677 55.85449219 0.22705078 C55.85449219 0.55705078 55.85449219 0.88705078 55.85449219 1.22705078 C55.11169006 1.23513763 54.36888794 1.24322449 53.60357666 1.2515564 C46.59978782 1.32953096 39.59619159 1.4168302 32.59265518 1.51457787 C28.99214778 1.56450155 25.39166916 1.61083173 21.79101562 1.64892578 C18.31550053 1.68582853 14.84022851 1.73220164 11.36492157 1.78511429 C9.39523764 1.81263727 7.4254249 1.83037787 5.45562744 1.84799194 C4.25468445 1.86786163 3.05374146 1.88773132 1.81640625 1.90820312 C0.75939514 1.92152679 -0.29761597 1.93485046 -1.38665771 1.94857788 C-4.16725078 2.22924547 -5.76800037 2.81455676 -8.14550781 4.22705078 C-9.47884115 4.89371745 -10.81217448 5.56038411 -12.14550781 6.22705078 C-11.2152481 3.90140151 -10.56891317 2.50663867 -8.45147705 1.10842896 C-5.51757399 -0.01295553 -3.14149351 -0.0127703 0 0 Z " fill="#393939" transform="translate(76.1455078125,188.77294921875)"/>
<path d="M0 0 C1.32 0 2.64 0 4 0 C5.75 2.5 5.75 2.5 7 5 C6.01 5.66 5.02 6.32 4 7 C2.35 5.02 0.7 3.04 -1 1 C-0.67 0.67 -0.34 0.34 0 0 Z " fill="#1C1C1C" transform="translate(119,256)"/>
<path d="M0 0 C2.0625 0.4375 2.0625 0.4375 4 1 C4 1.99 4 2.98 4 4 C3.01 4 2.02 4 1 4 C0.34 3.01 -0.32 2.02 -1 1 C-0.67 0.67 -0.34 0.34 0 0 Z " fill="#1E1E1E" transform="translate(89,226)"/>
</svg>
